<svg xmlns="http://www.w3.org/2000/svg" xmlns:xlink="http://www.w3.org/1999/xlink" version="1.1" x="0px" y="0px" viewBox="0 0 100 125" enable-background="new 0 0 100 100" xml:space="preserve"><polygon points="61.45,29.04 60.054,5.208 52.234,12.5 44.135,9.491 36.037,12.5 28.217,5.208 26.821,29.04 36.967,39.279   27.503,77.29 28.217,84.944 38.674,94.791 44.135,94.791 49.597,94.791 63.312,94.791 71.504,89.827 73.18,84.117 72,76.794   66.354,62.226 65.323,56.818 66.586,53.429 70.402,52.61 71.28,48.556 67.861,46.937 63.808,48.185 61.745,51.474 60.984,57.152   62.194,63.451 67.097,77.353 67.345,84.18 64.553,87.716 58.486,87.664 60.054,84.944 60.767,77.29 51.304,39.279 "/><text x="0" y="115" fill="#000000" font-size="5px" font-weight="bold" font-family="'Helvetica Neue', Helvetica, Arial-Unicode, Arial, Sans-serif">Created by m. turan ercan</text><text x="0" y="120" fill="#000000" font-size="5px" font-weight="bold" font-family="'Helvetica Neue', Helvetica, Arial-Unicode, Arial, Sans-serif">from the Noun Project</text></svg>